<?xml version="1.0" encoding="UTF-8"?>
<!-- Generated by Pixelmator Pro 3.6.18 -->
<svg width="4625" height="1644" viewBox="0 0 4625 1644" xmlns="http://www.w3.org/2000/svg">
    <g id="Layer">
        <g id="Group">
            <g id="g1">
                <path id="Path" fill="#081F3B" stroke="none" d="M 1641.36377 762.089844 L 1712.697021 693.730469 L 2024.780273 1184.146973 L 1772.142578 1445.701904 L 1641.36377 762.089844 Z"/>
            </g>
            <g id="g2">
                <g id="g3">
                    <path id="path1" fill="#081F3B" stroke="none" d="M 2090.170898 1359.506348 C 1962.709961 1451.015625 1871.623047 1525.734375 1807.321289 1583.703125 C 1975.522949 1621.241943 2235.386475 1594.681396 2381.447021 1522.980225 C 2544.922607 1442.730225 3053.172607 1112.813477 3335.532715 907.72998 C 3617.892334 702.646973 3715.971436 628.342285 3766.501953 577.813477 C 3817.032715 527.285156 3852.699219 467.839844 3852.699219 467.839844 C 3900.848145 366.726563 3931.92627 294.870605 3947.334473 243.96582 C 3627.414063 279.418945 3174.449219 578.427734 2969.948975 726.422852 C 2744.059326 889.896973 2437.920898 1109.839844 2090.170898 1359.506348 Z"/>
                    <g id="g4">
                        <path id="path2" fill="#081F3B" stroke="none" d="M 3918.085449 129.006348 C 3849.725586 111.17334 3817.032715 105.22998 3817.032715 105.22998 C 3817.032715 105.22998 3802.168945 48.756348 3641.668701 57.67334 C 3481.168945 66.589844 3418.755859 96.313477 3273.115723 185.47998 C 3127.476074 274.646973 2865.922607 503.508789 2619.22583 693.730469 C 2372.530273 883.95166 1590.837402 1508.120605 1751.337402 1567.563477 C 1768.435059 1573.896484 1787.26709 1579.227539 1807.321289 1583.703125 C 1871.623047 1525.734375 1962.709961 1451.015625 2090.170898 1359.506348 C 2437.920898 1109.839844 2744.059326 889.896973 2969.948975 726.422852 C 3174.449219 578.427734 3627.414063 279.418945 3947.334473 243.96582 C 3969.965332 169.175293 3958.758789 139.616699 3918.085449 129.006348 Z"/>
                    </g>
                </g>
            </g>
            <g id="g5">
                <path id="path3" fill="#081F3B" stroke="none" d="M 2090.170898 1359.506348 C 1962.709961 1451.015625 1871.623047 1525.734375 1807.321289 1583.703125 C 1975.522949 1621.241943 2235.386475 1594.681396 2381.447021 1522.980225 C 2544.922607 1442.730225 3053.172607 1112.813477 3335.532715 907.72998 C 3617.892334 702.646973 3715.971436 628.342285 3766.501953 577.813477 C 3817.032715 527.285156 3852.699219 467.839844 3852.699219 467.839844 C 3900.848145 366.726563 3931.92627 294.870605 3947.334473 243.96582 C 3627.414063 279.418945 3174.449219 578.427734 2969.948975 726.422852 C 2744.059326 889.896973 2437.920898 1109.839844 2090.170898 1359.506348 Z"/>
                <g id="g6">
                    <path id="path4" fill="#081F3B" stroke="none" d="M 3918.085449 129.006348 C 3849.725586 111.17334 3817.032715 105.22998 3817.032715 105.22998 C 3817.032715 105.22998 3802.168945 48.756348 3641.668701 57.67334 C 3481.168945 66.589844 3418.755859 96.313477 3273.115723 185.47998 C 3127.476074 274.646973 2865.922607 503.508789 2619.22583 693.730469 C 2372.530273 883.95166 1590.837402 1508.120605 1751.337402 1567.563477 C 1768.435059 1573.896484 1787.26709 1579.227539 1807.321289 1583.703125 C 1871.623047 1525.734375 1962.709961 1451.015625 2090.170898 1359.506348 C 2437.920898 1109.839844 2744.059326 889.896973 2969.948975 726.422852 C 3174.449219 578.427734 3627.414063 279.418945 3947.334473 243.96582 C 3969.965332 169.175293 3958.758789 139.616699 3918.085449 129.006348 Z"/>
                </g>
                <path id="path5" fill="none" stroke="none" d="M 3918.085449 129.006348 C 3849.725586 111.17334 3817.032715 105.22998 3817.032715 105.22998 C 3817.032715 105.22998 3802.168945 48.756348 3641.668701 57.67334 C 3481.168945 66.589844 3418.755859 96.313477 3273.115723 185.47998 C 3127.476074 274.646973 2865.922607 503.508789 2619.22583 693.730469 C 2372.530273 883.95166 1590.837402 1508.120605 1751.337402 1567.563477 C 1768.435059 1573.896484 1787.26709 1579.227539 1807.321289 1583.703125 C 1871.623047 1525.734375 1962.709961 1451.015625 2090.170898 1359.506348 C 2437.920898 1109.839844 2744.059326 889.896973 2969.948975 726.422852 C 3174.449219 578.427734 3627.414063 279.418945 3947.334473 243.96582 C 3969.965332 169.175293 3958.758789 139.616699 3918.085449 129.006348 Z"/>
            </g>
            <g id="g7">
                <path id="path6" fill="#081F3B" stroke="none" d="M 2744.059326 910.70166 C 2052.03125 991.025879 886.418701 1124.699707 633.780457 1145.506348 C 383.980835 1166.078613 333.232483 1173.576172 250.233337 1175.17627 L 211.72583 1249.535156 C 283.059204 1246.563477 2372.530273 1181.17334 2372.530273 1181.17334 C 2571.672607 1139.563477 2726.22583 993.925781 2752.97583 952.313477 C 2779.72583 910.70166 2744.059326 910.70166 2744.059326 910.70166 Z"/>
            </g>
            <g id="g8">
                <g id="g9">
                    <path id="path7" fill="#081F3B" stroke="none" d="M 2441.717041 1021.284668 L 2372.902832 931.506348 C 2181.984619 1061.436035 2111.506592 1148.785156 2147.045166 1235.76123 C 2294.180664 1171.762695 2388.953369 1082.980957 2441.717041 1021.284668 Z"/>
                </g>
                <g id="g10">
                    <path id="path8" fill="#081F3B" stroke="none" d="M 2441.717041 1021.284668 C 2388.953369 1082.980957 2294.180664 1171.762695 2147.045166 1235.76123 C 2151.342529 1246.278809 2157.09375 1256.789063 2164.466553 1267.368652 C 2232.828857 1365.45166 2541.205078 1151.07959 2541.205078 1151.07959 L 2441.717041 1021.284668 Z"/>
                </g>
                <path id="path9" fill="none" stroke="none" d="M 2441.717041 1021.284668 C 2388.953369 1082.980957 2294.180664 1171.762695 2147.045166 1235.76123 C 2151.342529 1246.278809 2157.09375 1256.789063 2164.466553 1267.368652 C 2232.828857 1365.45166 2541.205078 1151.07959 2541.205078 1151.07959 L 2441.717041 1021.284668 Z"/>
            </g>
            <g id="g11">
                <path id="path10" fill="#081F3B" stroke="none" d="M 247.392517 1175.22998 C 170.11377 1121.730469 80.947083 949.339844 80.947083 949.339844 L 51.225739 973.118652 C 51.225739 973.118652 156.74292 1251.021973 211.72583 1249.535156 L 250.233337 1175.17627 C 249.290405 1175.195801 248.343323 1175.213379 247.392517 1175.22998 Z"/>
            </g>
            <g id="g12">
                <path id="path11" fill="#081F3B" stroke="none" d="M 1787.00415 1398.146973 C 1350.087402 1415.980225 933.97583 1421.923096 933.97583 1421.923096 L 904.25415 1484.339844 C 904.25415 1484.339844 1710.831299 1565.031982 1757.280518 1517.035156 C 1846.447021 1424.896973 1787.00415 1398.146973 1787.00415 1398.146973 Z"/>
            </g>
            <g id="g13">
                <path id="path12" fill="#081F3B" stroke="none" d="M 4497.668945 1246.563477 C 4497.668945 1246.563477 3394.97583 985.006348 3258.252197 919.618652 L 2874.839355 1199.006348 C 2874.839355 1199.006348 4036.975586 1279.256348 4280.699219 1300.063477 C 4524.422852 1320.870605 4563.059082 1279.256348 4583.866211 1255.480469 L 4497.668945 1246.563477 Z"/>
            </g>
            <g id="g14">
                <path id="path13" fill="#081F3B" stroke="none" d="M 4521.449707 1047.42334 C 4518.479492 1035.533203 4482.80957 1065.256348 4482.80957 1065.256348 L 4497.668945 1246.563477 L 4583.866211 1255.480469 C 4604.672852 1231.704102 4524.418457 1059.313477 4521.449707 1047.42334 Z"/>
            </g>
            <path id="path14" fill="none" stroke="none" d="M 4521.449707 1047.42334 C 4518.479492 1035.533203 4482.80957 1065.256348 4482.80957 1065.256348 L 4497.668945 1246.563477 L 4583.866211 1255.480469 C 4604.672852 1231.704102 4524.418457 1059.313477 4521.449707 1047.42334 Z"/>
            <path id="path15" fill="#081F3B" stroke="none" d="M 2589.497559 1051.881348 C 2589.497559 1129.850098 2525.465332 1193.061523 2446.482666 1193.061523 C 2367.497559 1193.061523 2303.467529 1129.850098 2303.467529 1051.881348 C 2303.467529 973.908691 2367.497559 910.699707 2446.482666 910.699707 C 2525.465332 910.699707 2589.497559 973.908691 2589.497559 1051.881348 Z"/>
            <g id="g15">
                <path id="path16" fill="#081F3B" stroke="none" d="M 2574.633301 1025.131348 C 2574.633301 1088.327637 2522.73584 1139.561523 2458.716553 1139.561523 C 2394.697998 1139.561523 2342.800049 1088.327637 2342.800049 1025.131348 C 2342.800049 961.931152 2394.697998 910.699707 2458.716553 910.699707 C 2522.73584 910.699707 2574.633301 961.931152 2574.633301 1025.131348 Z"/>
            </g>
            <g id="g16">
                <path id="path17" fill="#081F3B" stroke="none" d="M 3482.657471 161.70166 L 3540.615723 134.95166 L 3539.126953 192.910156 L 3479.684082 200.339844 L 3482.657471 161.70166 Z"/>
                <path id="path18" fill="#081F3B" stroke="none" d="M 3555.47583 129.006348 L 3556.960449 188.45166 L 3620.865967 146.839844 L 3611.949219 112.660156 L 3555.47583 129.006348 Z"/>
                <path id="path19" fill="#081F3B" stroke="none" d="M 3631.267578 108.20166 L 3638.698975 139.410156 C 3699.627197 124.54834 3765.017578 114.146973 3765.017578 114.146973 L 3751.642578 96.313477 C 3686.251953 93.339844 3631.267578 108.20166 3631.267578 108.20166 Z"/>
                <path id="path20" fill="#081F3B" stroke="none" d="M 1899.195801 1402.607666 C 1899.195801 1405.890137 1896.535889 1408.550537 1893.25293 1408.550537 L 1893.25293 1408.550537 C 1889.970459 1408.550537 1887.307861 1405.890137 1887.307861 1402.607666 L 1887.307861 1371.39502 C 1887.307861 1368.112305 1889.970459 1365.45166 1893.25293 1365.45166 L 1893.25293 1365.45166 C 1896.535889 1365.45166 1899.195801 1368.112305 1899.195801 1371.39502 L 1899.195801 1402.607666 Z"/>
                <path id="path21" fill="#081F3B" stroke="none" d="M 1917.029053 1387.003418 C 1917.029053 1390.286133 1914.369141 1392.946289 1911.086182 1392.946289 L 1911.086182 1392.946289 C 1907.803711 1392.946289 1905.141357 1390.286133 1905.141357 1387.003418 L 1905.141357 1355.790527 C 1905.141357 1352.508301 1907.803711 1349.847656 1911.086182 1349.847656 L 1911.086182 1349.847656 C 1914.369141 1349.847656 1917.029053 1352.508301 1917.029053 1355.790527 L 1917.029053 1387.003418 Z"/>
                <path id="path22" fill="#081F3B" stroke="none" d="M 1937.834229 1369.912109 C 1937.834229 1373.195313 1935.173828 1375.85498 1931.891113 1375.85498 L 1931.891113 1375.85498 C 1928.608398 1375.85498 1925.945801 1373.195313 1925.945801 1369.912109 L 1925.945801 1338.699707 C 1925.945801 1335.416992 1928.608398 1332.756348 1931.891113 1332.756348 L 1931.891113 1332.756348 C 1935.173828 1332.756348 1937.834229 1335.416992 1937.834229 1338.699707 L 1937.834229 1369.912109 Z"/>
                <path id="path23" fill="#081F3B" stroke="none" d="M 1959.383301 1352.82373 C 1959.383301 1356.106445 1956.723389 1358.766602 1953.44043 1358.766602 L 1953.44043 1358.766602 C 1950.157959 1358.766602 1947.495361 1356.106445 1947.495361 1352.82373 L 1947.495361 1321.610352 C 1947.495361 1318.328125 1950.157959 1315.66748 1953.44043 1315.66748 L 1953.44043 1315.66748 C 1956.723389 1315.66748 1959.383301 1318.328125 1959.383301 1321.610352 L 1959.383301 1352.82373 Z"/>
                <path id="path24" fill="#081F3B" stroke="none" d="M 1982.41748 1334.245605 C 1982.41748 1337.52832 1979.75708 1340.188477 1976.474609 1340.188477 L 1976.474609 1340.188477 C 1973.19165 1340.188477 1970.529053 1337.52832 1970.529053 1334.245605 L 1970.529053 1303.033203 C 1970.529053 1299.75 1973.19165 1297.089844 1976.474609 1297.089844 L 1976.474609 1297.089844 C 1979.75708 1297.089844 1982.41748 1299.75 1982.41748 1303.033203 L 1982.41748 1334.245605 Z"/>
                <path id="path25" fill="#081F3B" stroke="none" d="M 2004.709229 1314.927734 C 2004.709229 1318.210449 2002.048828 1320.870605 1998.766357 1320.870605 L 1998.766357 1320.870605 C 1995.483398 1320.870605 1992.820801 1318.210449 1992.820801 1314.927734 L 1992.820801 1283.714844 C 1992.820801 1280.432129 1995.483398 1277.771973 1998.766357 1277.771973 L 1998.766357 1277.771973 C 2002.048828 1277.771973 2004.709229 1280.432129 2004.709229 1283.714844 L 2004.709229 1314.927734 Z"/>
                <path id="path26" fill="#081F3B" stroke="none" d="M 2029.974609 1297.094238 C 2029.974609 1300.377441 2027.314209 1303.037109 2024.031738 1303.037109 L 2024.031738 1303.037109 C 2020.748779 1303.037109 2018.086182 1300.377441 2018.086182 1297.094238 L 2018.086182 1265.881348 C 2018.086182 1262.599121 2020.748779 1259.938477 2024.031738 1259.938477 L 2024.031738 1259.938477 C 2027.314209 1259.938477 2029.974609 1262.599121 2029.974609 1265.881348 L 2029.974609 1297.094238 Z"/>
                <path id="path27" fill="#081F3B" stroke="none" d="M 2051.521729 1279.26123 C 2051.521729 1282.543945 2048.861328 1285.204102 2045.578613 1285.204102 L 2045.578613 1285.204102 C 2042.295898 1285.204102 2039.633301 1282.543945 2039.633301 1279.26123 L 2039.633301 1248.047852 C 2039.633301 1244.765625 2042.295898 1242.10498 2045.578613 1242.10498 L 2045.578613 1242.10498 C 2048.861328 1242.10498 2051.521729 1244.765625 2051.521729 1248.047852 L 2051.521729 1279.26123 Z"/>
                <path id="path28" fill="#081F3B" stroke="none" d="M 2557.553223 895.099609 C 2557.553223 898.382813 2554.893555 901.042969 2551.610107 901.042969 L 2551.610107 901.042969 C 2548.327637 901.042969 2545.66333 898.382813 2545.66333 895.099609 L 2545.66333 863.887207 C 2545.66333 860.604492 2548.327637 857.943848 2551.610107 857.943848 L 2551.610107 857.943848 C 2554.893555 857.943848 2557.553223 860.604492 2557.553223 863.887207 L 2557.553223 895.099609 Z"/>
                <path id="path29" fill="#081F3B" stroke="none" d="M 2575.386719 879.495605 C 2575.386719 882.77832 2572.726563 885.438477 2569.443115 885.438477 L 2569.443115 885.438477 C 2566.160889 885.438477 2563.496582 882.77832 2563.496582 879.495605 L 2563.496582 848.283203 C 2563.496582 845.000488 2566.160889 842.339844 2569.443115 842.339844 L 2569.443115 842.339844 C 2572.726563 842.339844 2575.386719 845.000488 2575.386719 848.283203 L 2575.386719 879.495605 Z"/>
                <path id="path30" fill="#081F3B" stroke="none" d="M 2596.193359 862.404785 C 2596.193359 865.687012 2593.529297 868.347656 2590.246582 868.347656 L 2590.246582 868.347656 C 2586.963379 868.347656 2584.303223 865.687012 2584.303223 862.404785 L 2584.303223 831.191895 C 2584.303223 827.90918 2586.963379 825.249023 2590.246582 825.249023 L 2590.246582 825.249023 C 2593.529297 825.249023 2596.193359 827.90918 2596.193359 831.191895 L 2596.193359 862.404785 Z"/>
                <path id="path31" fill="#081F3B" stroke="none" d="M 2617.740967 845.315918 C 2617.740967 848.598633 2615.080811 851.258789 2611.797607 851.258789 L 2611.797607 851.258789 C 2608.515137 851.258789 2605.85083 848.598633 2605.85083 845.315918 L 2605.85083 814.103027 C 2605.85083 810.820801 2608.515137 808.160156 2611.797607 808.160156 L 2611.797607 808.160156 C 2615.080811 808.160156 2617.740967 810.820801 2617.740967 814.103027 L 2617.740967 845.315918 Z"/>
                <path id="path32" fill="#081F3B" stroke="none" d="M 2640.776855 826.738281 C 2640.776855 830.020508 2638.112549 832.681152 2634.829834 832.681152 L 2634.829834 832.681152 C 2631.546631 832.681152 2628.886719 830.020508 2628.886719 826.738281 L 2628.886719 795.525391 C 2628.886719 792.242676 2631.546631 789.582031 2634.829834 789.582031 L 2634.829834 789.582031 C 2638.112549 789.582031 2640.776855 792.242676 2640.776855 795.525391 L 2640.776855 826.738281 Z"/>
                <path id="path33" fill="#081F3B" stroke="none" d="M 2663.068359 807.419922 C 2663.068359 810.702637 2660.404053 813.363281 2657.121826 813.363281 L 2657.121826 813.363281 C 2653.838379 813.363281 2651.178467 810.702637 2651.178467 807.419922 L 2651.178467 776.20752 C 2651.178467 772.924805 2653.838379 770.26416 2657.121826 770.26416 L 2657.121826 770.26416 C 2660.404053 770.26416 2663.068359 772.924805 2663.068359 776.20752 L 2663.068359 807.419922 Z"/>
                <path id="path34" fill="#081F3B" stroke="none" d="M 2688.330078 789.586914 C 2688.330078 792.869141 2685.674316 795.529785 2682.390869 795.529785 L 2682.390869 795.529785 C 2679.108398 795.529785 2676.443359 792.869141 2676.443359 789.586914 L 2676.443359 758.374023 C 2676.443359 755.091309 2679.108398 752.431152 2682.390869 752.431152 L 2682.390869 752.431152 C 2685.674316 752.431152 2688.330078 755.091309 2688.330078 758.374023 L 2688.330078 789.586914 Z"/>
                <path id="path35" fill="#081F3B" stroke="none" d="M 2709.880859 771.753418 C 2709.880859 775.036133 2707.216553 777.696289 2703.934082 777.696289 L 2703.934082 777.696289 C 2700.650635 777.696289 2697.990967 775.036133 2697.990967 771.753418 L 2697.990967 740.540527 C 2697.990967 737.258301 2700.650635 734.597656 2703.934082 734.597656 L 2703.934082 734.597656 C 2707.216553 734.597656 2709.880859 737.258301 2709.880859 740.540527 L 2709.880859 771.753418 Z"/>
                <path id="path36" fill="#081F3B" stroke="none" d="M 2768.953613 727.17041 C 2768.953613 730.452637 2766.289551 733.113281 2763.00708 733.113281 L 2763.00708 733.113281 C 2759.723877 733.113281 2757.063721 730.452637 2757.063721 727.17041 L 2757.063721 695.957031 C 2757.063721 692.674805 2759.723877 690.01416 2763.00708 690.01416 L 2763.00708 690.01416 C 2766.289551 690.01416 2768.953613 692.674805 2768.953613 695.957031 L 2768.953613 727.17041 Z"/>
                <path id="path37" fill="#081F3B" stroke="none" d="M 2800.161865 704.878418 C 2800.161865 708.161133 2797.498047 710.821289 2794.215332 710.821289 L 2794.215332 710.821289 C 2790.932129 710.821289 2788.271973 708.161133 2788.271973 704.878418 L 2788.271973 673.665527 C 2788.271973 670.383301 2790.932129 667.722656 2794.215332 667.722656 L 2794.215332 667.722656 C 2797.498047 667.722656 2800.161865 670.383301 2800.161865 673.665527 L 2800.161865 704.878418 Z"/>
                <path id="path38" fill="#081F3B" stroke="none" d="M 2833.599609 677.01416 C 2833.599609 680.296387 2830.935303 682.957031 2827.653076 682.957031 L 2827.653076 682.957031 C 2824.369629 682.957031 2821.709717 680.296387 2821.709717 677.01416 L 2821.709717 645.80127 C 2821.709717 642.518555 2824.369629 639.858398 2827.653076 639.858398 L 2827.653076 639.858398 C 2830.935303 639.858398 2833.599609 642.518555 2833.599609 645.80127 L 2833.599609 677.01416 Z"/>
                <path id="path39" fill="#081F3B" stroke="none" d="M 2864.807861 652.493164 C 2864.807861 655.775879 2862.143555 658.436035 2858.861328 658.436035 L 2858.861328 658.436035 C 2855.577881 658.436035 2852.917969 655.775879 2852.917969 652.493164 L 2852.917969 621.280273 C 2852.917969 617.997559 2855.577881 615.337402 2858.861328 615.337402 L 2858.861328 615.337402 C 2862.143555 615.337402 2864.807861 617.997559 2864.807861 621.280273 L 2864.807861 652.493164 Z"/>
                <path id="path40" fill="#081F3B" stroke="none" d="M 2901.589111 627.972168 C 2901.589111 631.254883 2898.925049 633.915039 2895.642578 633.915039 L 2895.642578 633.915039 C 2892.359131 633.915039 2889.699219 631.254883 2889.699219 627.972168 L 2889.699219 596.759277 C 2889.699219 593.477051 2892.359131 590.816406 2895.642578 590.816406 L 2895.642578 590.816406 C 2898.925049 590.816406 2901.589111 593.477051 2901.589111 596.759277 L 2901.589111 627.972168 Z"/>
                <path id="path41" fill="#081F3B" stroke="none" d="M 2935.026855 604.565918 C 2935.026855 607.848633 2932.362549 610.508789 2929.079834 610.508789 L 2929.079834 610.508789 C 2925.796631 610.508789 2923.136719 607.848633 2923.136719 604.565918 L 2923.136719 573.353027 C 2923.136719 570.070801 2925.796631 567.410156 2929.079834 567.410156 L 2929.079834 567.410156 C 2932.362549 567.410156 2935.026855 570.070801 2935.026855 573.353027 L 2935.026855 604.565918 Z"/>
                <path id="path42" fill="#081F3B" stroke="none" d="M 2968.464111 578.930664 C 2968.464111 582.213379 2965.800049 584.873535 2962.517578 584.873535 L 2962.517578 584.873535 C 2959.234131 584.873535 2956.574219 582.213379 2956.574219 578.930664 L 2956.574219 547.717773 C 2956.574219 544.435059 2959.234131 541.774902 2962.517578 541.774902 L 2962.517578 541.774902 C 2965.800049 541.774902 2968.464111 544.435059 2968.464111 547.717773 L 2968.464111 578.930664 Z"/>
                <path id="path43" fill="#081F3B" stroke="none" d="M 3005.245361 552.180664 C 3005.245361 555.462891 3002.581299 558.123535 2999.298828 558.123535 L 2999.298828 558.123535 C 2996.015381 558.123535 2993.355469 555.462891 2993.355469 552.180664 L 2993.355469 520.967773 C 2993.355469 517.685059 2996.015381 515.024902 2999.298828 515.024902 L 2999.298828 515.024902 C 3002.581299 515.024902 3005.245361 517.685059 3005.245361 520.967773 L 3005.245361 552.180664 Z"/>
                <path id="path44" fill="#081F3B" stroke="none" d="M 3036.453613 527.659668 C 3036.453613 530.942383 3033.789551 533.602539 3030.50708 533.602539 L 3030.50708 533.602539 C 3027.223633 533.602539 3024.563721 530.942383 3024.563721 527.659668 L 3024.563721 496.446777 C 3024.563721 493.164551 3027.223633 490.503906 3030.50708 490.503906 L 3030.50708 490.503906 C 3033.789551 490.503906 3036.453613 493.164551 3036.453613 496.446777 L 3036.453613 527.659668 Z"/>
                <path id="path45" fill="#081F3B" stroke="none" d="M 3073.235107 503.13916 C 3073.235107 506.421387 3070.570801 509.082031 3067.28833 509.082031 L 3067.28833 509.082031 C 3064.004883 509.082031 3061.345215 506.421387 3061.345215 503.13916 L 3061.345215 471.92627 C 3061.345215 468.643555 3064.004883 465.98291 3067.28833 465.98291 L 3067.28833 465.98291 C 3070.570801 465.98291 3073.235107 468.643555 3073.235107 471.92627 L 3073.235107 503.13916 Z"/>
                <path id="path46" fill="#081F3B" stroke="none" d="M 3104.443359 480.847168 C 3104.443359 484.129883 3101.779053 486.790039 3098.496826 486.790039 L 3098.496826 486.790039 C 3095.213379 486.790039 3092.553467 484.129883 3092.553467 480.847168 L 3092.553467 449.634277 C 3092.553467 446.352051 3095.213379 443.691406 3098.496826 443.691406 L 3098.496826 443.691406 C 3101.779053 443.691406 3104.443359 446.352051 3104.443359 449.634277 L 3104.443359 480.847168 Z"/>
                <path id="path47" fill="#081F3B" stroke="none" d="M 3138.995361 452.982422 C 3138.995361 456.265137 3136.331055 458.925781 3133.048828 458.925781 L 3133.048828 458.925781 C 3129.765625 458.925781 3127.105469 456.265137 3127.105469 452.982422 L 3127.105469 421.77002 C 3127.105469 418.487305 3129.765625 415.82666 3133.048828 415.82666 L 3133.048828 415.82666 C 3136.331055 415.82666 3138.995361 418.487305 3138.995361 421.77002 L 3138.995361 452.982422 Z"/>
                <path id="path48" fill="#081F3B" stroke="none" d="M 3171.318359 427.347168 C 3171.318359 430.629883 3168.654053 433.290039 3165.371582 433.290039 L 3165.371582 433.290039 C 3162.088135 433.290039 3159.428467 430.629883 3159.428467 427.347168 L 3159.428467 396.134277 C 3159.428467 392.852051 3162.088135 390.191406 3165.371582 390.191406 L 3165.371582 390.191406 C 3168.654053 390.191406 3171.318359 392.852051 3171.318359 396.134277 L 3171.318359 427.347168 Z"/>
                <path id="path49" fill="#081F3B" stroke="none" d="M 3212.557861 401.711914 C 3212.557861 404.994629 3209.893799 407.654785 3206.611328 407.654785 L 3206.611328 407.654785 C 3203.327881 407.654785 3200.667969 404.994629 3200.667969 401.711914 L 3200.667969 370.499023 C 3200.667969 367.216309 3203.327881 364.556152 3206.611328 364.556152 L 3206.611328 364.556152 C 3209.893799 364.556152 3212.557861 367.216309 3212.557861 370.499023 L 3212.557861 401.711914 Z"/>
                <path id="path50" fill="#081F3B" stroke="none" d="M 3253.797607 382.76416 C 3253.797607 386.046387 3251.133545 388.707031 3247.85083 388.707031 L 3247.85083 388.707031 C 3244.567627 388.707031 3241.907471 386.046387 3241.907471 382.76416 L 3241.907471 351.55127 C 3241.907471 348.268555 3244.567627 345.60791 3247.85083 345.60791 L 3247.85083 345.60791 C 3251.133545 345.60791 3253.797607 348.268555 3253.797607 351.55127 L 3253.797607 382.76416 Z"/>
            </g>
            <g id="g17">
                <g id="g18">
                    <path id="path51" fill="#081F3B" stroke="none" d="M 3632.146729 962.486328 C 3429.775391 1120.94043 3372.692627 1216.82959 3445.070801 1309.52002 C 3514.675781 1266.227539 3611.178223 1194.411133 3732.211182 1076.411133 L 3632.146729 962.486328 Z"/>
                </g>
                <g id="g19">
                    <path id="path52" fill="#081F3B" stroke="none" d="M 3445.070801 1309.52002 C 3445.584473 1310.179688 3446.041504 1310.839355 3446.568359 1311.499023 C 3521.31958 1404.804443 3814.716309 1170.349609 3814.716309 1170.349609 L 3732.211182 1076.411133 C 3611.178223 1194.411133 3514.675781 1266.227539 3445.070801 1309.52002 Z"/>
                </g>
                <path id="path53" fill="none" stroke="none" d="M 3445.070801 1309.52002 C 3445.584473 1310.179688 3446.041504 1310.839355 3446.568359 1311.499023 C 3521.31958 1404.804443 3814.716309 1170.349609 3814.716309 1170.349609 L 3732.211182 1076.411133 C 3611.178223 1194.411133 3514.675781 1266.227539 3445.070801 1309.52002 Z"/>
            </g>
            <path id="path54" fill="#081F3B" stroke="none" d="M 3856.286621 1068.151855 C 3861.485352 1145.94873 3801.811523 1213.287109 3723.002686 1218.553223 C 3644.189209 1223.818848 3576.09082 1165.018555 3570.892578 1087.22168 C 3565.694092 1009.42334 3625.367432 942.086426 3704.176514 936.820801 C 3782.985352 931.554199 3851.087891 990.353027 3856.286621 1068.151855 Z"/>
            <g id="g20">
                <path id="path55" fill="#081F3B" stroke="none" d="M 3839.672363 1042.453613 C 3843.887207 1105.507813 3795.520508 1160.087891 3731.64502 1164.356445 C 3667.765625 1168.625 3612.567139 1120.96582 3608.357178 1057.90918 C 3604.143066 994.850586 3652.509521 940.272949 3716.38501 936.004395 C 3780.259766 931.735352 3835.458008 979.39209 3839.672363 1042.453613 Z"/>
            </g>
            <path id="path56" fill="none" stroke="none" d="M 3839.672363 1042.453613 C 3843.887207 1105.507813 3795.520508 1160.087891 3731.64502 1164.356445 C 3667.765625 1168.625 3612.567139 1120.96582 3608.357178 1057.90918 C 3604.143066 994.850586 3652.509521 940.272949 3716.38501 936.004395 C 3780.259766 931.735352 3835.458008 979.39209 3839.672363 1042.453613 Z"/>
        </g>
    </g>
</svg>
