<svg width="450" height="450" viewBox="0 0 450 450" fill="currentColor" xmlns="http://www.w3.org/2000/svg">
<path d="M438.14 152.727C445.829 175.41 450 199.718 450 225C450 349.264 349.264 450 225 450C217.464 450 210.014 449.627 202.668 448.903L274.716 261.449H367.412L381.177 227.117H287.911L316.941 151.586L438.14 152.727ZM225 0C310.229 0 384.388 47.3883 422.57 117.253H292.853L250.442 227.117H190.765L177 261.449H237.189L167.287 442.529C70.9863 417.047 0 329.313 0 225C0 165.656 22.9751 111.679 60.5146 71.4766H193.312L93.2646 330.114H129.971L243.529 36H102.87C138.044 13.2245 179.977 0 225 0Z" />
</svg>
