<svg xmlns="http://www.w3.org/2000/svg" viewBox="-50 -50 550 550" width="100%" height="100%">
  <!-- Solid background circle for social media platforms -->
  <circle cx="225" cy="225" r="275" fill="currentColor"/>
  <path fill-rule="evenodd" clip-rule="evenodd" d="M450 225C450 349.264 349.264 450 225 450C100.736 450 0 349.264 0 225C0 100.736 100.736 0 225 0C349.264 0 450 100.736 450 225ZM225 420C332.696 420 420 332.696 420 225C420 203.544 416.535 182.897 410.133 164L410 164L304 164L278.692 229H360L348 259H267.188L205.809 419.068C212.122 419.684 218.524 420 225 420ZM174.962 413.52C91.5114 391.429 30 315.398 30 225C30 174.086 49.5128 127.729 81.4681 93H196.22L109 319H141L240 62H117.927C148.661 41.7709 185.456 30 225 30C299.425 30 364.112 71.6947 396.976 133H283L246.027 229H194L182 259H234.473L174.962 413.52Z" fill="#fff"/>
</svg>